HIERARCHY
ROOT root
{
	OFFSET 0.000000 0.000000 0.000000
	CHANNELS 6 Xposition Yposition Zposition Zrotation Yrotation Xrotation
	JOINT lhip
	{
		OFFSET 0.058581 -0.082280 -0.017664
		CHANNELS 3 Zrotation Yrotation Xrotation
		JOINT lknee
		{
			OFFSET 0.043451 -0.386469 0.008037
			CHANNELS 3 Zrotation Yrotation Xrotation
			JOINT lankle
			{
				OFFSET -0.014790 -0.426874 -0.037428
				CHANNELS 3 Zrotation Yrotation Xrotation
				JOINT ltoe
				{
					OFFSET 0.041054 -0.060286 0.122042
					CHANNELS 3 Zrotation Yrotation Xrotation
					End Site
					{
						OFFSET 0.000000 0.000000 0.000000
					}
				}
			}
		}
	}
	JOINT rhip
	{
		OFFSET -0.060310 -0.090513 -0.013543
		CHANNELS 3 Zrotation Yrotation Xrotation
		JOINT rknee
		{
			OFFSET -0.043257 -0.383688 -0.004843
			CHANNELS 3 Zrotation Yrotation Xrotation
			JOINT rankle
			{
				OFFSET 0.019056 -0.420046 -0.034562
				CHANNELS 3 Zrotation Yrotation Xrotation
				JOINT rtoe
				{
					OFFSET -0.034840 -0.062106 0.130323
					CHANNELS 3 Zrotation Yrotation Xrotation
					End Site
					{
						OFFSET 0.000000 0.000000 0.000000
					}
				}
			}
		}
	}
	JOINT lowerback
	{
		OFFSET 0.004439 0.124404 -0.038385
		CHANNELS 3 Zrotation Yrotation Xrotation
		JOINT upperback
		{
			OFFSET 0.004488 0.137956 0.026820
			CHANNELS 3 Zrotation Yrotation Xrotation
			JOINT chest
			{
				OFFSET -0.002265 0.056032 0.002855
				CHANNELS 3 Zrotation Yrotation Xrotation
				JOINT lowerneck
				{
					OFFSET -0.013390 0.211636 -0.033468
					CHANNELS 3 Zrotation Yrotation Xrotation
					JOINT upperneck
					{
						OFFSET 0.010113 0.088937 0.050410
						CHANNELS 3 Zrotation Yrotation Xrotation
						End Site
						{
							OFFSET 0.000000 0.000000 0.000000
						}
					}
				}
				JOINT lclavicle
				{
					OFFSET 0.071702 0.114000 -0.018898
					CHANNELS 3 Zrotation Yrotation Xrotation
					JOINT lshoulder
					{
						OFFSET 0.122921 0.045205 -0.019046
						CHANNELS 3 Zrotation Yrotation Xrotation
						JOINT lelbow
						{
							OFFSET 0.255332 -0.015649 -0.022946
							CHANNELS 3 Zrotation Yrotation Xrotation
							JOINT lwrist
							{
								OFFSET 0.265709 0.012698 -0.007375
								CHANNELS 3 Zrotation Yrotation Xrotation
								End Site
								{
									OFFSET 0.000000 0.000000 0.000000
								}
							}
						}
					}
				}
				JOINT rclavicle
				{
					OFFSET -0.082954 0.112472 -0.023707
					CHANNELS 3 Zrotation Yrotation Xrotation
					JOINT rshoulder
					{
						OFFSET -0.113228 0.046853 -0.008472
						CHANNELS 3 Zrotation Yrotation Xrotation
						JOINT relbow
						{
							OFFSET -0.260127 -0.014369 -0.031269
							CHANNELS 3 Zrotation Yrotation Xrotation
							JOINT rwrist
							{
								OFFSET -0.269108 0.006794 -0.006027
								CHANNELS 3 Zrotation Yrotation Xrotation
								End Site
								{
									OFFSET 0.000000 0.000000 0.000000
								}
							}
						}
					}
				}
			}
		}
	}
}
MOTION
Frames: 7
Frame Time: 0.033333
-0.526871 -1.849464 0.982825 165.777041 0.685354 94.550969 5.852693 4.165535 -27.915710 -8.744343 11.521223 45.147415 -2.965175 -0.037187 -1.036505 0.000000 -0.000000 0.000000 -8.421239 -6.450679 -19.633457 -0.588100 -4.687248 50.381346 0.315893 -3.858317 -9.454995 0.000000 -0.000000 0.000000 2.034091 1.244917 26.852087 -3.972229 1.147041 1.378328 -0.451091 0.174145 -1.662202 -15.690723 18.394720 -11.895050 -14.625539 33.057555 -20.315179 -29.034928 -1.170605 3.023219 -33.503486 4.932796 -5.973312 66.643487 -59.156864 -59.373695 12.970234 -8.425841 -17.920869 24.350763 8.297366 5.945744 48.749064 7.543977 4.414166 -33.033546 43.224132 -38.656753 -14.205792 10.087070 -3.323083 
-0.537264 -1.785522 0.999056 164.527663 0.756456 95.341787 6.451667 6.225888 -28.459977 -8.870039 7.509684 49.051193 -3.237759 -2.269626 3.175360 0.000000 -0.000000 0.000000 -9.112523 -8.919410 -19.127137 -0.770185 -7.095386 46.162900 0.560520 -3.185193 -5.721561 0.000000 -0.000000 0.000000 2.601114 1.287712 24.816760 -4.927986 1.996442 0.969743 -0.557642 0.448009 -1.981247 -16.077884 18.581210 -10.341792 -15.322957 35.893902 -22.452970 -29.445997 2.145539 4.480309 -35.227765 7.696416 -8.180461 62.512314 -56.949807 -59.325740 6.464753 -9.304408 -29.239458 23.448968 5.968957 7.993704 50.618564 5.943643 3.654672 -32.573984 45.092226 -39.304321 -13.894230 9.141284 -8.316524 
-0.545683 -1.721512 1.004507 162.621964 0.629831 95.692933 10.542814 8.105498 -26.490218 -2.969095 14.021165 48.000415 2.723013 9.635008 -1.943859 0.000000 -0.000000 0.000000 -10.514884 -10.632966 -17.559428 0.158868 -6.389805 43.192853 2.127608 -4.009441 -0.914119 0.000000 -0.000000 0.000000 1.495288 2.145157 22.620242 -5.359841 3.008370 0.517545 -0.141776 0.727874 -1.068161 -15.630452 16.816812 -10.715710 -14.008415 37.703260 -21.601302 -29.206934 5.954292 5.313101 -37.770983 9.110860 -10.322028 58.347617 -57.605795 -62.166138 9.209277 -5.202327 -38.037845 23.172421 3.317607 8.512441 51.207340 5.052209 4.837097 -30.642346 46.476250 -39.034045 -15.610381 8.923773 -7.858917 
-0.554591 -1.641342 0.994396 162.422598 0.020737 96.366995 14.851784 7.845602 -24.651189 -4.974327 12.056447 39.169683 1.969596 8.759519 -7.009825 0.000000 -0.000000 0.000000 -13.396606 -11.512899 -14.257569 1.110574 -5.757220 41.958502 5.016847 -3.009223 3.192562 0.000000 -0.000000 0.000000 -0.714125 3.622359 18.838089 -4.827830 3.329995 1.421494 0.186575 0.416217 -0.549901 -12.754280 14.397673 -9.659203 -11.229999 34.040841 -17.975314 -28.965610 10.984328 6.986113 -43.162342 10.727939 -11.397564 61.576794 -55.597877 -67.388389 7.175123 -6.088207 -46.839652 23.920988 -0.267021 8.376072 51.425728 4.212733 5.837608 -28.797249 47.822333 -35.780102 -13.400031 9.148660 -6.653000 
-0.559674 -1.592373 0.979625 163.276098 -0.337415 97.063305 17.854369 7.530751 -24.150574 -4.755175 14.936060 33.832701 -5.832364 10.689288 -6.125247 0.000000 -0.000000 0.000000 -15.385204 -11.628979 -11.153701 0.549238 -7.579551 41.496833 7.986882 -1.406363 3.702410 0.000000 -0.000000 0.000000 -1.882024 4.605279 15.422149 -4.212773 3.313234 2.632318 -0.217121 0.578713 -0.234911 -9.771756 12.777406 -9.018884 -7.887891 27.270881 -13.544183 -28.939251 14.741786 6.392754 -46.299965 10.756228 -11.366203 66.718908 -54.920690 -71.393146 4.300300 -9.352958 -49.847302 24.907884 -3.242746 8.014920 51.304475 3.423523 5.992838 -26.439572 49.009938 -31.650514 -14.322022 9.111032 -8.961519 
-0.567075 -1.528376 0.948729 166.003910 -1.781720 98.543010 19.517845 6.216028 -26.528413 -6.150958 13.841429 28.369024 -2.690122 8.636484 -7.741509 0.000000 -0.000000 0.000000 -18.385402 -12.993376 -6.211492 0.086731 -9.140411 40.880482 7.935795 -2.910708 -1.794897 0.000000 -0.000000 0.000000 -4.137614 6.718842 10.092305 -3.737844 3.435369 2.922282 -0.427215 0.953237 1.639595 -5.110199 5.386170 -7.916966 -1.657769 15.227405 -7.583789 -28.169455 19.532944 5.962752 -49.393234 8.110136 -10.609190 76.498592 -55.083889 -79.113984 5.568443 -7.193806 -50.865352 24.903891 -7.274092 7.679816 53.086527 0.430577 5.859724 -25.070337 50.580898 -29.760940 -14.733328 8.137535 -11.823320 
-0.572414 -1.462087 0.907263 169.912862 -2.640583 98.093937 20.922671 6.134862 -29.104706 -7.026590 11.845809 28.184762 -3.930580 7.514866 -9.783397 0.000000 -0.000000 0.000000 -20.018210 -14.579454 2.529634 -3.673079 -11.460628 39.068978 9.484571 -0.721106 -7.956695 0.000000 -0.000000 0.000000 -5.867915 9.895327 8.410280 -3.585158 2.653289 2.211777 0.138161 3.069203 -2.232999 8.732259 -23.378914 3.614718 24.474473 -11.175846 -10.244728 -25.316754 20.495368 11.315988 -52.181839 7.683281 -12.618751 91.916707 -57.033251 -89.314921 3.385531 -8.961947 -52.676555 20.989824 -7.478797 12.938191 59.482056 -8.289465 -4.546139 -17.124105 54.102611 -16.857726 -15.811066 6.253083 -18.290427 
